<svg xmlns="http://www.w3.org/2000/svg">
<symbol id='icon-car'>
<path d="M11 8H2V9.5H11V8Z" fill="#2A254B"/>
<path d="M8 4.25H0.5V5.75H8V4.25Z" fill="#2A254B"/>
<path d="M21.4392 8.4548L19.1892 3.2048C19.1315 3.06979 19.0355 2.95469 18.9129 2.87383C18.7904 2.79297 18.6468 2.74991 18.5 2.75H16.25V1.25C16.25 1.05109 16.171 0.860322 16.0303 0.71967C15.8897 0.579018 15.6989 0.5 15.5 0.5H3.5V2H14.75V11.4172C14.4083 11.6156 14.1092 11.8797 13.8701 12.1943C13.6309 12.5089 13.4564 12.8677 13.3566 13.25H8.64342C8.46088 12.543 8.02675 11.9269 7.42242 11.517C6.81809 11.1072 6.08504 10.9319 5.36067 11.0239C4.63631 11.1159 3.97038 11.4689 3.48768 12.0168C3.00499 12.5647 2.73869 13.2698 2.73869 14C2.73869 14.7302 3.00499 15.4353 3.48768 15.9832C3.97038 16.5311 4.63631 16.8841 5.36067 16.9761C6.08504 17.0681 6.81809 16.8928 7.42242 16.483C8.02675 16.0731 8.46088 15.457 8.64342 14.75H13.3566C13.5201 15.3933 13.8934 15.9638 14.4174 16.3712C14.9414 16.7787 15.5862 16.9999 16.25 16.9999C16.9138 16.9999 17.5586 16.7787 18.0826 16.3712C18.6066 15.9638 18.9799 15.3933 19.1434 14.75H20.75C20.9489 14.75 21.1397 14.671 21.2803 14.5303C21.421 14.3897 21.5 14.1989 21.5 14V8.75C21.5 8.64849 21.4793 8.54805 21.4392 8.4548ZM5.75 15.5C5.45333 15.5 5.16332 15.412 4.91665 15.2472C4.66997 15.0824 4.47771 14.8481 4.36418 14.574C4.25065 14.2999 4.22094 13.9983 4.27882 13.7074C4.3367 13.4164 4.47956 13.1491 4.68934 12.9393C4.89912 12.7296 5.16639 12.5867 5.45736 12.5288C5.74834 12.4709 6.04994 12.5006 6.32403 12.6142C6.59811 12.7277 6.83238 12.92 6.9972 13.1666C7.16203 13.4133 7.25 13.7033 7.25 14C7.24954 14.3977 7.09136 14.779 6.81016 15.0602C6.52895 15.3414 6.14768 15.4995 5.75 15.5ZM16.25 4.25H18.0056L19.6129 8H16.25V4.25ZM16.25 15.5C15.9533 15.5 15.6633 15.412 15.4166 15.2472C15.17 15.0824 14.9777 14.8481 14.8642 14.574C14.7506 14.2999 14.7209 13.9983 14.7788 13.7074C14.8367 13.4164 14.9796 13.1491 15.1893 12.9393C15.3991 12.7296 15.6664 12.5867 15.9574 12.5288C16.2483 12.4709 16.5499 12.5006 16.824 12.6142C17.0981 12.7277 17.3324 12.92 17.4972 13.1666C17.662 13.4133 17.75 13.7033 17.75 14C17.7495 14.3977 17.5914 14.779 17.3102 15.0602C17.0289 15.3414 16.6477 15.4995 16.25 15.5ZM20 13.25H19.1434C18.9782 12.6076 18.6045 12.0382 18.0808 11.631C17.5572 11.2239 16.9133 11.0019 16.25 11V9.5H20V13.25Z" fill="#2A254B"/>
</symbol>
<symbol id="icon-done">
<path d="M9.5 15.0605L5.75 11.3097L6.80976 10.25L9.5 12.9395L15.1888 7.25L16.25 8.31125L9.5 15.0605Z" fill="#2A254B"/>
<path d="M11 0.5C8.9233 0.5 6.89323 1.11581 5.16652 2.26957C3.4398 3.42332 2.09399 5.0632 1.29927 6.98182C0.504549 8.90045 0.296614 11.0116 0.701759 13.0484C1.1069 15.0852 2.10693 16.9562 3.57538 18.4246C5.04383 19.8931 6.91476 20.8931 8.95156 21.2982C10.9884 21.7034 13.0996 21.4955 15.0182 20.7007C16.9368 19.906 18.5767 18.5602 19.7304 16.8335C20.8842 15.1068 21.5 13.0767 21.5 11C21.5 8.21523 20.3938 5.54451 18.4246 3.57538C16.4555 1.60625 13.7848 0.5 11 0.5ZM11 20C9.21997 20 7.47992 19.4722 5.99987 18.4832C4.51983 17.4943 3.36628 16.0887 2.68509 14.4442C2.0039 12.7996 1.82567 10.99 2.17294 9.24419C2.5202 7.49836 3.37737 5.89471 4.63604 4.63604C5.89472 3.37737 7.49836 2.5202 9.24419 2.17293C10.99 1.82567 12.7996 2.0039 14.4442 2.68508C16.0887 3.36627 17.4943 4.51983 18.4832 5.99987C19.4722 7.47991 20 9.21997 20 11C20 13.3869 19.0518 15.6761 17.364 17.364C15.6761 19.0518 13.387 20 11 20Z" fill="#2A254B"/>
</symbol>
<symbol id="icon-card">
<path d="M20 0.5H2C1.60218 0.5 1.22064 0.658035 0.93934 0.93934C0.658035 1.22064 0.5 1.60218 0.5 2V14C0.5 14.3978 0.658035 14.7794 0.93934 15.0607C1.22064 15.342 1.60218 15.5 2 15.5H20C20.3978 15.5 20.7794 15.342 21.0607 15.0607C21.342 14.7794 21.5 14.3978 21.5 14V2C21.5 1.60218 21.342 1.22064 21.0607 0.93934C20.7794 0.658035 20.3978 0.5 20 0.5ZM20 2V4.25H2V2H20ZM2 14V5.75H20V14H2Z" fill="#2A254B"/>
<path d="M11 11H3.5V12.5H11V11Z" fill="#2A254B"/>
</symbol>
<symbol id="recycled">
<path d="M14.75 0.5C13.0878 0.502747 11.4651 1.00708 10.0942 1.94704C8.72323 2.887 7.66789 4.21881 7.06617 5.7683C6.58413 5.06903 5.93949 4.49727 5.18767 4.10216C4.43584 3.70705 3.59932 3.50041 2.75 3.5H0.5V5.75C0.501548 7.14191 1.05517 8.47637 2.0394 9.4606C3.02363 10.4448 4.35809 10.9985 5.75 11H6.5V17.787C4.7773 17.9554 3.16718 18.7191 1.94675 19.9465L3.00725 21.0071C3.63464 20.3798 4.39333 19.8995 5.22869 19.6006C6.06405 19.3018 6.95528 19.192 7.83819 19.279C8.7211 19.3661 9.57373 19.6478 10.3347 20.104C11.0956 20.5602 11.7459 21.1794 12.2387 21.9172L13.4849 21.0826C12.8701 20.1638 12.0593 19.3926 11.111 18.8244C10.1626 18.2562 9.10018 17.9052 8 17.7965V11H8.75C10.9373 10.9975 13.0343 10.1275 14.5809 8.58089C16.1275 7.03425 16.9975 4.93727 17 2.75V0.5H14.75ZM5.75 9.5C4.75579 9.49887 3.80262 9.10342 3.0996 8.4004C2.39658 7.69738 2.00113 6.74421 2 5.75V5H2.75C3.74423 5.00107 4.69744 5.3965 5.40047 6.09953C6.1035 6.80256 6.49893 7.75577 6.5 8.75V9.5H5.75ZM15.5 2.75C15.498 4.5396 14.7862 6.25534 13.5208 7.52078C12.2553 8.78622 10.5396 9.49801 8.75 9.5H8V8.75C8.00199 6.9604 8.71378 5.24466 9.97922 3.97922C11.2447 2.71378 12.9604 2.00199 14.75 2H15.5V2.75Z" fill="#2A254B"/>
</symbol>
</svg>